<?xml version="1.0" encoding="utf-8"?>
<!-- Generator: Adobe Illustrator 19.0.0, SVG Export Plug-In . SVG Version: 6.00 Build 0)  -->
<svg version="1.1" xmlns="http://www.w3.org/2000/svg" xmlns:xlink="http://www.w3.org/1999/xlink" x="0px" y="0px"
	 viewBox="0 0 600 680.1" style="enable-background:new 0 0 600 680.1;" xml:space="preserve">
<style type="text/css">
	.st0{fill:#EFE009;}
	.st1{font-family:'Insaniburger';}
	.st2{font-size:65px;}
</style>
<g id="Layer_1">
</g>
<g id="Layer_2">
	<g>
		<path d="M82.1,63.9c0,53,0,105.9,0,158.9c0,84.5,0,169,0,253.5c0,19.5,0,39,0,58.5c0,25.1,22.1,49.2,48,48c26-1.2,48-21.1,48-48
			c0-53,0-105.9,0-158.9c0-84.5,0-169,0-253.5c0-19.5,0-39,0-58.5c0-25.1-22.1-49.2-48-48C104.1,17.1,82.1,37,82.1,63.9L82.1,63.9z"
			/>
	</g>
	<g>
		<path d="M420.6,63.9c0,53,0,105.9,0,158.9c0,84.5,0,169,0,253.5c0,19.5,0,39,0,58.5c0,25.1,22.1,49.2,48,48c26-1.2,48-21.1,48-48
			c0-53,0-105.9,0-158.9c0-84.5,0-169,0-253.5c0-19.5,0-39,0-58.5c0-25.1-22.1-49.2-48-48C442.6,17.1,420.6,37,420.6,63.9
			L420.6,63.9z"/>
	</g>
	<g>
		<path class="st0" d="M88.8,86.8c38.3,53.5,76.6,107.1,114.8,160.6c61,85.3,121.9,170.5,182.9,255.8c13.9,19.5,27.9,39,41.8,58.4
			c14.6,20.4,42.5,32.2,65.7,17.2c20.2-13,32.8-43.8,17.2-65.7c-38.3-53.5-76.6-107.1-114.8-160.6c-61-85.3-121.9-170.5-182.9-255.8
			c-13.9-19.5-27.9-39-41.8-58.4C157.1,18,129.2,6.2,106,21.1C85.8,34.2,73.2,65,88.8,86.8L88.8,86.8z"/>
	</g>
	<text transform="matrix(1 0 0 1 33.1742 664.125)" class="st1 st2">NOTEBLOCKCHAIN</text>
</g>
</svg>
