<svg id="Layer_1" data-name="Layer 1" xmlns="http://www.w3.org/2000/svg" viewBox="0 0 1080 1080"><defs><style>.cls-1{fill:#fff;}</style></defs><title>Noteblockchain</title><rect width="1080" height="1080"/><path class="cls-1" d="M684.84,161.77a33.13,33.13,0,0,0-33.14-33.13H401.06l.38.49H159.56A55.55,55.55,0,0,0,104,184.68V895.32a55.55,55.55,0,0,0,55.56,55.55h89.88A55.55,55.55,0,0,0,305,895.31v-519c0-49.18,59.2-74.11,94.38-39.75L591.94,524.67c31.9,31.16,83.55,13.57,92.9-26.65h0a57.84,57.84,0,0,0,1.48-13.1Z"/><path class="cls-1" d="M925.86,129.13H825.14A50.13,50.13,0,0,0,775,179.27V716.53c0,44.39-53.43,66.88-85.18,35.87l-211-206.06c-31.76-31-85.18-8.52-85.18,35.87V696.59a50.65,50.65,0,0,0,.28,5.24l-.28-.22V906A45.33,45.33,0,0,0,439,951.36H717.07l-.63-.49H925.86A50.14,50.14,0,0,0,976,900.73V179.27A50.14,50.14,0,0,0,925.86,129.13Z"/></svg>