<svg id="Layer_1" data-name="Layer 1" xmlns="http://www.w3.org/2000/svg" viewBox="0 0 1080 1080"><defs><style>.cls-1{fill:#edc11b;}</style></defs><title>Noteblockchain</title><path d="M703.92,111.94a37.5,37.5,0,0,0-37.5-37.51H382.75l.43.56H109.43a62.88,62.88,0,0,0-62.88,62.88V942.13A62.88,62.88,0,0,0,109.43,1005H211.16A62.88,62.88,0,0,0,274,942.13V354.77c0-55.66,67-83.87,106.82-45L598.78,522.65c36.11,35.27,94.56,15.36,105.14-30.16h0a65.21,65.21,0,0,0,1.68-14.82Z"/><path class="cls-1" d="M976.7,75h-114A56.75,56.75,0,0,0,806,131.74V739.79c0,50.23-60.46,75.7-96.4,40.6L470.8,547.17c-35.94-35.1-96.4-9.63-96.4,40.6V717.22a55.67,55.67,0,0,0,.32,5.93l-.32-.24V954.25a51.32,51.32,0,0,0,51.32,51.32H740.4l-.72-.56h237a56.75,56.75,0,0,0,56.75-56.75V131.74A56.75,56.75,0,0,0,976.7,75Z"/></svg>