<?xml version="1.0" encoding="utf-8"?>
<!-- Generator: Adobe Illustrator 16.0.0, SVG Export Plug-In . SVG Version: 6.00 Build 0)  -->
<!DOCTYPE svg PUBLIC "-//W3C//DTD SVG 1.1//EN" "http://www.w3.org/Graphics/SVG/1.1/DTD/svg11.dtd">
<svg version="1.1" id="Layer_1" xmlns="http://www.w3.org/2000/svg" xmlns:xlink="http://www.w3.org/1999/xlink" x="0px" y="0px"
	 width="399px" height="425px" viewBox="0 0 399 425" enable-background="new 0 0 399 425" xml:space="preserve">
<g>
	<path d="M262.583,23.494c0-7.971-6.461-14.432-14.432-14.432H138.987l0.164,0.213H33.804c-13.363,0-24.197,10.834-24.197,24.198
		v309.505c0,13.363,10.834,24.197,24.197,24.197h39.148c13.364,0,24.197-10.834,24.197-24.197V116.946
		c0-21.421,25.783-32.278,41.107-17.311l83.863,81.914c13.896,13.572,36.389,5.91,40.463-11.606l0,0l0,0
		c0.419-1.802,0.644-3.707,0.644-5.705L262.583,23.494z"/>
	<g>
		<path fill="#EEC21B" d="M367.556,9.275h-43.869c-12.061,0-21.838,9.777-21.838,21.838v233.999
			c0,19.332-23.267,29.131-37.096,15.623l-91.884-89.748c-13.829-13.508-37.097-3.709-37.097,15.622v49.817
			c0,0.766,0.043,1.527,0.123,2.283l-0.123-0.096v89.029c0,10.906,8.842,19.748,19.748,19.748h121.1l-0.276-0.215h91.212
			c12.061,0,21.838-9.777,21.838-21.838V31.113C389.394,19.053,379.616,9.275,367.556,9.275z"/>
	</g>
</g>
<g>
	<path d="M29.39,399.228v-9.778c0-2.649,1.508-3.975,4.523-3.975s4.523,1.325,4.523,3.975v22.891c0,2.65-1.508,3.976-4.523,3.976
		c-1.675,0-3-0.579-3.975-1.736l-10.144-12.063v9.823c0,2.65-1.508,3.976-4.523,3.976c-3.015,0-4.522-1.325-4.522-3.976V389.45
		c0-2.635,1.508-3.959,4.522-3.975c1.935-0.015,3.32,0.609,4.158,1.873L29.39,399.228z"/>
	<path d="M73.047,400.598c0,4.768-1.546,8.624-4.638,11.571s-7.006,4.42-11.742,4.42s-8.636-1.473-11.696-4.42
		c-3.062-2.947-4.592-6.804-4.592-11.571c0-4.767,1.522-8.631,4.568-11.594c3.046-2.962,6.972-4.443,11.777-4.443
		c4.805,0,8.727,1.481,11.765,4.443C71.527,391.967,73.047,395.832,73.047,400.598z M62.219,394.864
		c-1.371-1.507-3.198-2.261-5.483-2.261c-2.284,0-4.12,0.758-5.506,2.272c-1.386,1.516-2.078,3.427-2.078,5.734
		s0.692,4.207,2.078,5.699c1.386,1.493,3.218,2.239,5.495,2.239c2.276,0,4.104-0.754,5.482-2.262
		c1.378-1.508,2.067-3.411,2.067-5.711S63.589,396.372,62.219,394.864z"/>
	<path d="M91.917,392.74v19.646c0,2.65-1.508,3.975-4.523,3.975s-4.523-1.324-4.523-3.975V392.74h-4.568
		c-2.438,0-3.655-1.211-3.655-3.633c0-2.421,1.218-3.632,3.655-3.632h18.229c2.437,0,3.655,1.211,3.655,3.632
		c0,2.422-1.219,3.633-3.655,3.633H91.917z"/>
	<path d="M106.651,416.316c-3.015,0-4.522-1.325-4.522-3.976V389.45c0-2.649,1.508-3.975,4.522-3.975h10.966
		c2.346,0,3.519,1.211,3.519,3.632c0,2.422-1.173,3.633-3.519,3.633h-6.442v4.432h5.528c2.346,0,3.519,1.219,3.519,3.655
		s-1.173,3.655-3.519,3.655h-5.528v4.569h6.442c2.346,0,3.519,1.21,3.519,3.632s-1.173,3.633-3.519,3.633H106.651z"/>
	<path d="M147.498,407.177c0,6.093-3.229,9.139-9.687,9.139h-9.869c-3.015,0-4.522-1.325-4.522-3.976V389.45
		c0-2.649,1.508-3.975,4.522-3.975h9.185c6.152,0,9.229,2.452,9.229,7.356c0,3.229-1.233,5.468-3.7,6.716
		C145.884,401.101,147.498,403.644,147.498,407.177z M137.812,394.659c0-1.979-0.99-2.97-2.97-2.97h-2.376v5.939h2.468
		C136.853,397.628,137.812,396.638,137.812,394.659z M138.451,406.675c0-2.224-1.111-3.336-3.335-3.336h-2.65v6.671h2.742
		C137.37,410.01,138.451,408.899,138.451,406.675z"/>
	<path d="M165.568,416.316h-11.605c-3.015,0-4.522-1.325-4.522-3.976V389.45c0-2.649,1.508-3.975,4.522-3.975
		c3.016,0,4.523,1.325,4.523,3.975v19.602h7.082c1.889,0,2.833,1.21,2.833,3.632S167.457,416.316,165.568,416.316z"/>
	<path d="M203.012,400.598c0,4.768-1.546,8.624-4.638,11.571s-7.006,4.42-11.742,4.42s-8.636-1.473-11.696-4.42
		c-3.062-2.947-4.592-6.804-4.592-11.571c0-4.767,1.522-8.631,4.568-11.594c3.046-2.962,6.972-4.443,11.777-4.443
		c4.805,0,8.727,1.481,11.765,4.443C201.492,391.967,203.012,395.832,203.012,400.598z M192.184,394.864
		c-1.371-1.507-3.198-2.261-5.483-2.261c-2.284,0-4.12,0.758-5.506,2.272c-1.386,1.516-2.078,3.427-2.078,5.734
		s0.692,4.207,2.078,5.699c1.386,1.493,3.218,2.239,5.495,2.239c2.276,0,4.104-0.754,5.482-2.262
		c1.378-1.508,2.067-3.411,2.067-5.711S193.554,396.372,192.184,394.864z"/>
	<path d="M233.259,410.776c0,1.104-0.876,2.35-2.627,3.735c-1.752,1.386-4.996,2.078-9.732,2.078s-8.636-1.473-11.696-4.42
		c-3.062-2.947-4.592-6.804-4.592-11.571c0-4.767,1.522-8.631,4.568-11.594c3.046-2.962,6.972-4.443,11.777-4.443
		c4.805,0,8.056,0.693,9.754,2.079s2.548,2.631,2.548,3.735s-0.366,2.087-1.097,2.946c-0.731,0.861-1.534,1.291-2.41,1.291
		s-2.262-0.335-4.158-1.005c-1.896-0.67-3.316-1.005-4.26-1.005c-5.118,0-7.677,2.657-7.677,7.973s2.559,7.973,7.677,7.973
		c0.943,0,2.364-0.335,4.26-1.005c1.896-0.67,3.282-1.006,4.158-1.006s1.679,0.431,2.41,1.291
		C232.893,408.689,233.259,409.671,233.259,410.776z"/>
	<path d="M252.95,400.827l7.447,8.225c1.066,1.188,1.6,2.276,1.6,3.267s-0.469,1.904-1.405,2.741
		c-0.937,0.838-1.941,1.257-3.016,1.257c-1.073,0-2.189-0.625-3.347-1.874l-9.641-10.463v8.361c0,2.65-1.508,3.976-4.523,3.976
		c-3.015,0-4.522-1.325-4.522-3.976V389.45c0-2.649,1.508-3.975,4.522-3.975c3.016,0,4.523,1.325,4.523,3.975v8.271l9.641-10.418
		c1.173-1.264,2.288-1.896,3.347-1.896s2.057,0.415,2.993,1.245s1.405,1.747,1.405,2.753c0,1.005-0.526,2.086-1.577,3.243
		L252.95,400.827z"/>
	<path d="M292.244,410.776c0,1.104-0.876,2.35-2.627,3.735c-1.752,1.386-4.996,2.078-9.732,2.078s-8.636-1.473-11.696-4.42
		c-3.062-2.947-4.592-6.804-4.592-11.571c0-4.767,1.522-8.631,4.568-11.594c3.046-2.962,6.972-4.443,11.777-4.443
		c4.805,0,8.056,0.693,9.754,2.079s2.548,2.631,2.548,3.735s-0.366,2.087-1.097,2.946c-0.731,0.861-1.534,1.291-2.41,1.291
		s-2.262-0.335-4.158-1.005c-1.896-0.67-3.316-1.005-4.26-1.005c-5.118,0-7.677,2.657-7.677,7.973s2.559,7.973,7.677,7.973
		c0.943,0,2.364-0.335,4.26-1.005c1.896-0.67,3.282-1.006,4.158-1.006s1.679,0.431,2.41,1.291
		C291.878,408.689,292.244,409.671,292.244,410.776z"/>
	<path d="M314.266,385.475c3.016,0,4.523,1.325,4.523,3.975v22.891c0,2.65-1.508,3.976-4.523,3.976s-4.523-1.325-4.523-3.976v-7.858
		h-6.168v7.858c0,2.65-1.508,3.976-4.523,3.976c-3.015,0-4.522-1.325-4.522-3.976V389.45c0-2.649,1.508-3.975,4.522-3.975
		c3.016,0,4.523,1.325,4.523,3.975v7.722h6.168v-7.722C309.742,386.8,311.25,385.475,314.266,385.475z"/>
	<path d="M330.395,410.878l-0.868,2.33c-0.776,2.071-2.053,3.107-3.826,3.107c-1.774,0-3.047-0.545-3.815-1.634
		c-0.77-1.089-1.153-2.067-1.153-2.936s0.19-1.721,0.571-2.559l9.412-20.606c0.943-2.07,2.383-3.106,4.317-3.106
		c1.934,0,3.373,1.036,4.317,3.106l9.458,20.606c0.396,0.854,0.594,1.713,0.594,2.581s-0.373,1.844-1.119,2.925
		s-2.021,1.622-3.826,1.622c-1.806,0-3.096-1.036-3.873-3.107l-0.868-2.33H330.395z M337.02,403.568l-1.965-5.346l-1.965,5.346
		H337.02z"/>
	<path d="M360.39,412.34c0,2.65-1.508,3.976-4.523,3.976c-3.015,0-4.522-1.325-4.522-3.976V389.45c0-2.649,1.508-3.975,4.522-3.975
		c3.016,0,4.523,1.325,4.523,3.975V412.34z"/>
	<path d="M381.315,399.228v-9.778c0-2.649,1.508-3.975,4.523-3.975s4.523,1.325,4.523,3.975v22.891c0,2.65-1.508,3.976-4.523,3.976
		c-1.675,0-3-0.579-3.975-1.736l-10.144-12.063v9.823c0,2.65-1.508,3.976-4.523,3.976c-3.015,0-4.522-1.325-4.522-3.976V389.45
		c0-2.635,1.508-3.959,4.522-3.975c1.935-0.015,3.32,0.609,4.158,1.873L381.315,399.228z"/>
</g>
<g>
</g>
<g>
</g>
<g>
</g>
<g>
</g>
<g>
</g>
<g>
</g>
</svg>
