<?xml version="1.0" encoding="utf-8"?>
<!-- Generator: Adobe Illustrator 19.0.0, SVG Export Plug-In . SVG Version: 6.00 Build 0)  -->
<svg version="1.1" xmlns="http://www.w3.org/2000/svg" xmlns:xlink="http://www.w3.org/1999/xlink" x="0px" y="0px"
	 viewBox="0 0 600 600" style="enable-background:new 0 0 600 600;" xml:space="preserve">
<g id="Layer_1">
</g>
<g id="Layer_2">
	<g>
		<g>
			<path d="M131.9,25.9c9.2,0,18.2,4.1,25.2,11.7c7,7.4,11,17,11,26.4v58.5v253.5v158.9c0,10.1-4,19.5-11.2,26.5
				c-7.2,7-16.9,11.1-27.2,11.5c-0.4,0-0.9,0-1.4,0c-9.2,0-18.2-4.1-25.2-11.7c-7-7.4-11-17-11-26.4v-58.5V222.8V63.9
				c0-10.1,4-19.5,11.2-26.5c7.2-7,16.9-11.1,27.2-11.5C131,25.9,131.4,25.9,131.9,25.9 M131.9,15.9c-0.6,0-1.2,0-1.8,0
				c-26,1.2-48,21.1-48,48c0,53,0,105.9,0,158.9c0,84.5,0,169,0,253.5c0,19.5,0,39,0,58.5c0,24.5,21.1,48,46.2,48c0.6,0,1.2,0,1.8,0
				c26-1.2,48-21.1,48-48c0-53,0-105.9,0-158.9c0-84.5,0-169,0-253.5c0-19.5,0-39,0-58.5C178.1,39.4,157,15.9,131.9,15.9L131.9,15.9
				z"/>
		</g>
	</g>
	<g>
		<g>
			<path d="M473.3,25.9c9.2,0,18.2,4.1,25.2,11.7c7,7.4,11,17,11,26.4v58.5v253.5v158.9c0,10.1-4,19.5-11.2,26.5
				c-7.2,7-16.9,11.1-27.2,11.5c-0.4,0-0.9,0-1.4,0c-9.2,0-18.2-4.1-25.2-11.7c-7-7.4-11-17-11-26.4v-58.5V222.8V63.9
				c0-10.1,4-19.5,11.2-26.5c7.2-7,16.9-11.1,27.2-11.5C472.4,25.9,472.8,25.9,473.3,25.9 M473.3,15.9c-0.6,0-1.2,0-1.8,0
				c-26,1.2-48,21.1-48,48c0,53,0,105.9,0,158.9c0,84.5,0,169,0,253.5c0,19.5,0,39,0,58.5c0,24.5,21.1,48,46.2,48c0.6,0,1.2,0,1.8,0
				c26-1.2,48-21.1,48-48c0-53,0-105.9,0-158.9c0-84.5,0-169,0-253.5c0-19.5,0-39,0-58.5C519.5,39.4,498.4,15.9,473.3,15.9
				L473.3,15.9z"/>
		</g>
	</g>
	<g>
		<path d="M88.8,86.8c38.3,53.5,76.6,107.1,114.8,160.6c61,85.3,121.9,170.5,182.9,255.8c13.9,19.5,27.9,39,41.8,58.4
			c14.6,20.4,42.5,32.2,65.7,17.2c20.2-13,32.8-43.8,17.2-65.7c-38.3-53.5-76.6-107.1-114.8-160.6c-61-85.3-121.9-170.5-182.9-255.8
			c-13.9-19.5-27.9-39-41.8-58.4C157.1,18,129.2,6.2,106,21.1C85.8,34.2,73.2,65,88.8,86.8L88.8,86.8z"/>
	</g>
</g>
</svg>
