<?xml version="1.0" encoding="utf-8"?>
<!-- Generator: Adobe Illustrator 16.0.0, SVG Export Plug-In . SVG Version: 6.00 Build 0)  -->
<!DOCTYPE svg PUBLIC "-//W3C//DTD SVG 1.1//EN" "http://www.w3.org/Graphics/SVG/1.1/DTD/svg11.dtd">
<svg version="1.1" id="Layer_1" xmlns="http://www.w3.org/2000/svg" xmlns:xlink="http://www.w3.org/1999/xlink" x="0px" y="0px"
	 width="399px" height="376.453px" viewBox="0 0 399 376.453" enable-background="new 0 0 399 376.453" xml:space="preserve">
<g>
	<path d="M262.583,23.494c0-7.971-6.461-14.432-14.432-14.432H138.987l0.164,0.213H33.804c-13.363,0-24.197,10.834-24.197,24.198
		v309.505c0,13.363,10.834,24.197,24.197,24.197h39.148c13.364,0,24.197-10.834,24.197-24.197V116.946
		c0-21.421,25.783-32.278,41.107-17.311l83.863,81.914c13.896,13.572,36.389,5.91,40.463-11.606l0,0l0,0
		c0.419-1.802,0.644-3.707,0.644-5.705L262.583,23.494z"/>
	<g>
		<path d="M367.556,9.275h-43.869c-12.061,0-21.838,9.777-21.838,21.838v233.999c0,19.332-23.267,29.131-37.096,15.623
			l-91.884-89.748c-13.829-13.508-37.097-3.709-37.097,15.622v49.817c0,0.766,0.043,1.527,0.123,2.283l-0.123-0.096v89.029
			c0,10.906,8.842,19.748,19.748,19.748h121.1l-0.276-0.215h91.212c12.061,0,21.838-9.777,21.838-21.838V31.113
			C389.394,19.053,379.616,9.275,367.556,9.275z"/>
	</g>
</g>
<g>
</g>
<g>
</g>
<g>
</g>
<g>
</g>
<g>
</g>
<g>
</g>
</svg>
